<?xml version="1.0" encoding="UTF-8"?>
<svg id="Layer_1" data-name="Layer 1" xmlns="http://www.w3.org/2000/svg" viewBox="0 0 269.29 76.97">
  <defs>
    <style>
      .cls-1 {
        fill: #4855a5;
      }

      .cls-2 {
        fill: #231f20;
      }
    </style>
  </defs>
  <g>
    <path class="cls-2" d="m79.31,10.37s-.02,0-.03,0c.01,0,.02,0,.03,0,0,0,0,0,0,0Z"/>
    <path class="cls-1" d="m268.99,48.42c-1.25-8.77-4.84-16.92-10.41-23.39-6.52-7.57-15.33-12.35-24.86-13.67-13.69-2.29-19.62,3.33-48.83,6.47v2.84c13.33-1.42,21.91-3.34,28.47-4.81,5.68-1.27,9.78-2.2,14.2-2.2,1.85,0,3.72.16,5.72.5,8.99,1.24,17.21,5.76,23.22,12.74,5.18,6.02,8.55,13.57,9.74,21.84.31,3.64.37,7.34.18,10.99-.18,3.52-.6,7.06-1.24,10.53-.21,1.15-.68,2.2-1.38,3.06-.18.11-.55.23-1.06.36l.02-.1c3.58-14.2,3.08-17.08,2.67-18.27-.8-3.66-3.59-6.3-7.52-7.1l-.25-.07h-.18c-.25-.02-.5-.03-.74-.03-5.29,0-8.26,4.25-9.58,7.86h-1.72c.38-2.08,1.16-5.01,2.75-7.83,1.11-1.67,2.53-3.03,4.23-4.05l2.35-1.4-1.32-2.42c-.67-1.24-2.13-2.89-2.41-3.21-.24-.27-6.12-6.8-14.6-6.8-.99,0-1.98.09-2.95.27-10.79,1.71-16.83,3.82-22.68,5.87-6.56,2.29-12.9,4.51-25.91,6.14v2.85c25.41-3.16,26.3-8.45,49.08-12.07,8.61-1.57,15,5.65,15,5.65,0,0,1.49,1.68,2.04,2.69-2.07,1.23-3.84,2.93-5.19,4.99-3.37,5.94-3.53,12.16-3.53,12.16h6.95s1.67-8.33,8.03-7.84c.26.07,4.61.69,5.47,5.14.81,2.11-1.31,11.32-2.68,16.77-.24-.1-.51-.16-.79-.16-1.14,0-2.06.95-2.06,2.13,0,1.08.78,1.96,1.79,2.1.07,0,.14.02.21.02.02,0,.04,0,.07,0,.06,0,.11-.01.16-.02,1.32-.06,5.28-.36,6.39-1.68,1.06-1.26,1.78-2.81,2.08-4.48.67-3.6,1.1-7.24,1.29-10.9.2-3.83.14-7.65-.19-11.46Z"/>
    <path class="cls-1" d="m89.82,36.22c-6.22-1.98-12.66-4.02-23.21-5.7-.91-.17-1.91-.26-2.89-.26-8.48,0-14.36,6.53-14.61,6.8-.28.32-1.73,1.97-2.41,3.21l-1.32,2.42,2.35,1.4c1.7,1.01,3.13,2.37,4.23,4.05,1.59,2.82,2.37,5.75,2.75,7.83h-1.72c-1.32-3.61-4.29-7.86-9.58-7.86-.24,0-.49,0-.74.03l-.25.02-.18.05c-3.93.82-6.7,3.46-7.5,7.1-.41,1.19-.91,4.07,2.67,18.27l.02.09c-.52-.12-.88-.25-1.06-.36-.69-.85-1.17-1.9-1.37-3.05-.64-3.47-1.06-7.01-1.25-10.53-.19-3.65-.13-7.35.18-10.99,1.03-7.18,3.75-13.92,7.87-19.5l.71-.96-.18-1.19c-.98-6.31-14.82-16.34-29.01-22.19,12.36,2.15,25.94,4.44,28.82,4.83.39.05,1.75.3,3.62.63,25.8,4.64,49.03,7.97,69.52,9.97v-2.84C78.69,13.92,45.21,7.3,42.5,6.93,38.68,6.41,15.47,2.45,1.74,0,.75-.02.28,1.26.29,1.23c-.72,1.47.11,2.57.31,2.61,17.57,3.62,38.06,17.83,38.98,23.71-4.44,6.01-7.33,13.2-8.42,20.88-.33,3.81-.39,7.64-.19,11.46.19,3.66.62,7.3,1.29,10.9.31,1.67,1.02,3.22,2.08,4.48,1.11,1.32,5.07,1.62,6.39,1.68.05,0,.11.02.16.02.02,0,.04,0,.07,0,.07,0,.14-.01.21-.02,1.01-.14,1.79-1.02,1.79-2.1,0-1.17-.92-2.13-2.06-2.13-.28,0-.55.06-.79.16-1.38-5.45-3.49-14.66-2.68-16.77.85-4.44,5.21-5.07,5.47-5.14,6.36-.49,8.03,7.84,8.03,7.84h6.95s-.15-6.22-3.53-12.16c-1.35-2.07-3.13-3.76-5.19-4.99.55-1.01,2.04-2.69,2.04-2.69,0,0,6.39-7.21,15-5.65,21.88,3.47,25.45,8.49,49.08,11.67v-2.85c-11.91-1.63-18.57-3.74-25.44-5.92Z"/>
  </g>
  <circle class="cls-1" cx="150.19" cy="33.39" r="2.83"/>
</svg>