<?xml version="1.0" encoding="UTF-8"?>
<svg id="Layer_1" data-name="Layer 1" xmlns="http://www.w3.org/2000/svg" viewBox="0 0 269.29 76.97">
  <defs>
    <style>
      .cls-1 {
        fill: #456d2e;
      }

      .cls-2 {
        fill: #231f20;
      }
    </style>
  </defs>
  <path class="cls-1" d="m76.78,11.05s-.02,0-.03,0c.01,0,.02,0,.03,0,0,0,0,0,0,0Z"/>
  <path class="cls-2" d="m268.99,48.42c-1.25-8.77-4.84-16.92-10.41-23.39-6.52-7.57-15.33-12.35-24.86-13.67-17.79-2.97-22.47,7.4-82.19,8.34-47.38-.74-105.42-12.29-109.03-12.78C38.68,6.41,15.47,2.45,1.74,0,.75-.02.28,1.26.29,1.23c-.72,1.47.11,2.57.31,2.61,17.57,3.62,38.06,17.83,38.98,23.71-4.44,6.01-7.33,13.2-8.42,20.88-.33,3.81-.39,7.64-.19,11.46.19,3.66.62,7.3,1.29,10.9.31,1.67,1.02,3.22,2.08,4.48,1.11,1.32,5.07,1.62,6.39,1.68.05,0,.11.02.16.02.02,0,.04,0,.07,0,.07,0,.14-.01.21-.02,1.01-.14,1.79-1.02,1.79-2.1,0-1.17-.92-2.13-2.06-2.13-.28,0-.55.06-.79.16-1.38-5.45-3.49-14.66-2.68-16.77.85-4.44,5.21-5.07,5.47-5.14,6.36-.49,8.03,7.84,8.03,7.84h6.95s-.15-6.22-3.53-12.16c-1.35-2.07-3.13-3.76-5.19-4.99.55-1.01,2.04-2.69,2.04-2.69,0,0,6.39-7.21,15-5.65,29.97,4.76,25.58,12.41,85.49,14.29,0,0,0,.02,0,.02.12,0,.23,0,.34-.01,0,0,0,0,0,0,0,0,0,0,0,0,59.89-1.88,51.96-9.54,81.93-14.3,8.61-1.57,15,5.65,15,5.65,0,0,1.49,1.68,2.04,2.69-2.07,1.23-3.84,2.93-5.19,4.99-3.37,5.94-3.53,12.16-3.53,12.16h6.95s1.67-8.33,8.03-7.84c.26.07,4.61.69,5.47,5.14.81,2.11-1.31,11.32-2.68,16.77-.24-.1-.51-.16-.79-.16-1.14,0-2.06.95-2.06,2.13,0,1.08.78,1.96,1.79,2.1.07,0,.14.02.21.02.02,0,.04,0,.07,0,.06,0,.11-.01.16-.02,1.32-.06,5.28-.36,6.39-1.68,1.06-1.26,1.78-2.81,2.08-4.48.67-3.6,1.1-7.24,1.29-10.9.2-3.83.14-7.65-.19-11.46Z"/>
</svg>